<mxfile host="app.diagrams.net" agent="Mozilla/5.0 (Windows NT 10.0; Win64; x64) AppleWebKit/537.36 (KHTML, like Gecko) Chrome/130.0.0.0 Safari/537.36" version="24.8.6">
  <diagram name="Page-1" id="2KtpAVc2xAeUunYXC85N">
    <mxGraphModel dx="15693" dy="5580" grid="1" gridSize="10" guides="1" tooltips="1" connect="1" arrows="1" fold="1" page="1" pageScale="1" pageWidth="850" pageHeight="1100" math="0" shadow="0">
      <root>
        <mxCell id="0" />
        <mxCell id="1" parent="0" />
        <mxCell id="b4DLCXRPWBxsqyUNeIHi-8" value="" style="rounded=0;whiteSpace=wrap;html=1;strokeWidth=15;" vertex="1" parent="1">
          <mxGeometry x="-5080" y="-1080" width="8170" height="2550" as="geometry" />
        </mxCell>
        <mxCell id="tXN8Nqjk0O4pm7Y_quoO-12" style="edgeStyle=orthogonalEdgeStyle;rounded=0;orthogonalLoop=1;jettySize=auto;html=1;entryX=0.5;entryY=0;entryDx=0;entryDy=0;strokeWidth=15;" parent="1" source="tXN8Nqjk0O4pm7Y_quoO-1" target="tXN8Nqjk0O4pm7Y_quoO-3" edge="1">
          <mxGeometry relative="1" as="geometry" />
        </mxCell>
        <mxCell id="b4DLCXRPWBxsqyUNeIHi-4" style="edgeStyle=orthogonalEdgeStyle;rounded=0;orthogonalLoop=1;jettySize=auto;html=1;strokeWidth=15;entryX=0.5;entryY=1;entryDx=0;entryDy=0;" edge="1" parent="1" source="tXN8Nqjk0O4pm7Y_quoO-1" target="tXN8Nqjk0O4pm7Y_quoO-8">
          <mxGeometry relative="1" as="geometry">
            <mxPoint x="1450" y="1070" as="targetPoint" />
            <Array as="points">
              <mxPoint x="-2820" y="-830" />
              <mxPoint x="-4770" y="-830" />
              <mxPoint x="-4770" y="1280" />
              <mxPoint x="1350" y="1280" />
            </Array>
          </mxGeometry>
        </mxCell>
        <mxCell id="tXN8Nqjk0O4pm7Y_quoO-1" value="&lt;font style=&quot;font-size: 96px;&quot;&gt;Content Generator&lt;/font&gt;&lt;div&gt;&lt;font style=&quot;font-size: 72px;&quot;&gt;(Gemini-1.5-pro)&lt;/font&gt;&lt;/div&gt;" style="rounded=0;whiteSpace=wrap;html=1;strokeWidth=5;" parent="1" vertex="1">
          <mxGeometry x="-3490" y="-460" width="1340" height="270" as="geometry" />
        </mxCell>
        <mxCell id="b4DLCXRPWBxsqyUNeIHi-1" style="edgeStyle=orthogonalEdgeStyle;rounded=0;orthogonalLoop=1;jettySize=auto;html=1;entryX=0;entryY=0.5;entryDx=0;entryDy=0;strokeWidth=15;" edge="1" parent="1" source="tXN8Nqjk0O4pm7Y_quoO-2" target="tXN8Nqjk0O4pm7Y_quoO-1">
          <mxGeometry relative="1" as="geometry" />
        </mxCell>
        <mxCell id="tXN8Nqjk0O4pm7Y_quoO-2" value="&lt;font style=&quot;font-size: 96px;&quot;&gt;User Input&lt;/font&gt;" style="text;html=1;align=center;verticalAlign=middle;resizable=0;points=[];autosize=1;strokeColor=none;fillColor=none;strokeWidth=5;" parent="1" vertex="1">
          <mxGeometry x="-4360" y="130" width="470" height="130" as="geometry" />
        </mxCell>
        <mxCell id="tXN8Nqjk0O4pm7Y_quoO-27" style="edgeStyle=orthogonalEdgeStyle;rounded=0;orthogonalLoop=1;jettySize=auto;html=1;entryX=0;entryY=0.5;entryDx=0;entryDy=0;" parent="1" source="tXN8Nqjk0O4pm7Y_quoO-3" target="tXN8Nqjk0O4pm7Y_quoO-4" edge="1">
          <mxGeometry relative="1" as="geometry" />
        </mxCell>
        <mxCell id="tXN8Nqjk0O4pm7Y_quoO-29" style="edgeStyle=orthogonalEdgeStyle;rounded=0;orthogonalLoop=1;jettySize=auto;html=1;entryX=0;entryY=0.5;entryDx=0;entryDy=0;strokeWidth=15;" parent="1" source="tXN8Nqjk0O4pm7Y_quoO-3" target="tXN8Nqjk0O4pm7Y_quoO-4" edge="1">
          <mxGeometry relative="1" as="geometry" />
        </mxCell>
        <mxCell id="tXN8Nqjk0O4pm7Y_quoO-3" value="&lt;span style=&quot;font-size: 72px;&quot;&gt;Chapter Splitter&lt;/span&gt;" style="rounded=0;whiteSpace=wrap;html=1;strokeWidth=5;" parent="1" vertex="1">
          <mxGeometry x="-3230" y="720" width="816" height="250" as="geometry" />
        </mxCell>
        <mxCell id="tXN8Nqjk0O4pm7Y_quoO-30" style="edgeStyle=orthogonalEdgeStyle;rounded=0;orthogonalLoop=1;jettySize=auto;html=1;entryX=0.5;entryY=1;entryDx=0;entryDy=0;strokeWidth=15;" parent="1" source="tXN8Nqjk0O4pm7Y_quoO-4" target="tXN8Nqjk0O4pm7Y_quoO-7" edge="1">
          <mxGeometry relative="1" as="geometry" />
        </mxCell>
        <mxCell id="tXN8Nqjk0O4pm7Y_quoO-4" value="&lt;span style=&quot;font-size: 72px;&quot;&gt;Image Prompt Generator&lt;/span&gt;&lt;div&gt;&lt;font style=&quot;font-size: 72px;&quot;&gt;&lt;font style=&quot;&quot;&gt;(Gemini-1.5-pro)&lt;/font&gt;&lt;br&gt;&lt;/font&gt;&lt;div&gt;&lt;span style=&quot;color: rgba(0, 0, 0, 0); font-family: monospace; font-size: 0px; text-align: start; text-wrap-mode: nowrap;&quot;&gt;(f%3CmxGraphModel%3E%3Croot%3E%3CmxCell%20id%3D%220%22%2F%3E%3CmxCell%20id%3D%221%22%20parent%3D%220%22%2F%3E%3CmxCell%20id%3D%222%22%20value%3D%22%26lt%3Bspan%20style%3D%26quot%3Bfont-size%3A%2072px%3B%26quot%3B%26gt%3BChapter%20Splitter%26lt%3B%2Fspan%26gt%3B%22%20style%3D%22rounded%3D0%3BwhiteSpace%3Dwrap%3Bhtml%3D1%3B%22%20vertex%3D%221%22%20parent%3D%221%22%3E%3CmxGeometry%20x%3D%2270%22%20y%3D%22480%22%20width%3D%22690%22%20height%3D%22190%22%20as%3D%22geometry%22%2F%3E%3C%2FmxCell%3E%3C%2Froot%3E%3C%2FmxGraphModel%3E&lt;/span&gt;&lt;span style=&quot;color: rgba(0, 0, 0, 0); font-family: monospace; font-size: 0px; text-align: start; text-wrap-mode: nowrap;&quot;&gt;%3CmxGraphModel%3E%3Croot%3E%3CmxCell%20id%3D%220%22%2F%3E%3CmxCell%20id%3D%221%22%20parent%3D%220%22%2F%3E%3CmxCell%20id%3D%222%22%20value%3D%22%26lt%3Bspan%20style%3D%26quot%3Bfont-size%3A%2072px%3B%26quot%3B%26gt%3BChapter%20Splitter%26lt%3B%2Fspan%26gt%3B%22%20style%3D%22rounded%3D0%3BwhiteSpace%3Dwrap%3Bhtml%3D1%3B%22%20vertex%3D%221%22%20parent%3D%221%22%3E%3CmxGeometry%20x%3D%2270%22%20y%3D%22480%22%20width%3D%22690%22%20height%3D%22190%22%20as%3D%22geometry%22%2F%3E%3C%2FmxCell%3E%3C%2Froot%3E%3C%2FmxGraphModel%3dE&lt;/span&gt;&lt;/div&gt;&lt;/div&gt;" style="rounded=0;whiteSpace=wrap;html=1;strokeWidth=5;" parent="1" vertex="1">
          <mxGeometry x="-1923" y="710" width="1040" height="270" as="geometry" />
        </mxCell>
        <mxCell id="tXN8Nqjk0O4pm7Y_quoO-32" style="edgeStyle=orthogonalEdgeStyle;rounded=0;orthogonalLoop=1;jettySize=auto;html=1;entryX=0.5;entryY=0;entryDx=0;entryDy=0;strokeWidth=15;" parent="1" source="tXN8Nqjk0O4pm7Y_quoO-5" target="tXN8Nqjk0O4pm7Y_quoO-18" edge="1">
          <mxGeometry relative="1" as="geometry" />
        </mxCell>
        <mxCell id="b4DLCXRPWBxsqyUNeIHi-7" style="edgeStyle=orthogonalEdgeStyle;rounded=0;orthogonalLoop=1;jettySize=auto;html=1;strokeWidth=15;" edge="1" parent="1" source="tXN8Nqjk0O4pm7Y_quoO-5" target="tXN8Nqjk0O4pm7Y_quoO-9">
          <mxGeometry relative="1" as="geometry" />
        </mxCell>
        <mxCell id="tXN8Nqjk0O4pm7Y_quoO-5" value="&lt;div&gt;&lt;font style=&quot;font-size: 96px;&quot;&gt;Image Generation&lt;/font&gt;&lt;/div&gt;&lt;div&gt;&lt;font style=&quot;font-size: 72px;&quot;&gt;(stabilityai/sdxl-turbo)&lt;/font&gt;&lt;div&gt;&lt;div style=&quot;text-align: start;&quot;&gt;&lt;font face=&quot;monospace&quot; color=&quot;rgba(0, 0, 0, 0)&quot;&gt;&lt;span style=&quot;font-size: 0px; text-wrap-mode: nowrap;&quot;&gt;asdfsdf&lt;/span&gt;&lt;/font&gt;&lt;/div&gt;&lt;div&gt;&lt;span style=&quot;color: rgba(0, 0, 0, 0); font-family: monospace; font-size: 0px; text-align: start; text-wrap-mode: nowrap;&quot;&gt;s&lt;/span&gt;&lt;/div&gt;&lt;/div&gt;&lt;/div&gt;" style="rounded=0;whiteSpace=wrap;html=1;strokeWidth=5;" parent="1" vertex="1">
          <mxGeometry x="-601" y="-490" width="1121" height="330" as="geometry" />
        </mxCell>
        <mxCell id="tXN8Nqjk0O4pm7Y_quoO-31" style="edgeStyle=orthogonalEdgeStyle;rounded=0;orthogonalLoop=1;jettySize=auto;html=1;entryX=0;entryY=0.5;entryDx=0;entryDy=0;strokeWidth=15;" parent="1" target="tXN8Nqjk0O4pm7Y_quoO-5" edge="1">
          <mxGeometry relative="1" as="geometry">
            <mxPoint x="-999.75" y="-325" as="sourcePoint" />
          </mxGeometry>
        </mxCell>
        <mxCell id="tXN8Nqjk0O4pm7Y_quoO-7" value="&lt;span style=&quot;font-size: 72px;&quot;&gt;Image Prompt Splitter&lt;/span&gt;&lt;span style=&quot;background-color: initial; text-wrap-mode: nowrap; color: rgba(0, 0, 0, 0); font-family: monospace; font-size: 0px; text-align: start;&quot;&gt;%3CmxGraphModel%3E%3Croot%3E%3CmxCell%20id%3D%220%22%2F%3E%3CmxCell%20id%3D%221%22%20parent%3D%220%22%2F%3E%3CmxCell%20id%3D%222%22%20value%3D%22%26lt%3Bspan%20style%3D%26quot%3Bfont-size%3A%2072px%3B%26quot%3B%26gt%3BChapter%20Splitter%26lt%3B%2Fspan%26gt%3B%22%20style%3D%22rounded%3D0%3BwhiteSpace%3Dwrap%3Bhtml%3D1%3B%22%20vertex%3D%221%22%20parent%3D%221%22%3E%3CmxGeometry%20x%3D%2270%22%20y%3D%22480%22%20width%3D%22690%22%20height%3D%22190%22%20as%3D%22geometry%22%2F%3E%3C%2FmxCell%3E%3C%2Froot%3E%3C%2FmxGraphModel%3E&lt;/span&gt;&lt;span style=&quot;background-color: initial; text-wrap-mode: nowrap; color: rgba(0, 0, 0, 0); font-family: monospace; font-size: 0px; text-align: start;&quot;&gt;%3CmxGraphModel%3E%3Croot%3E%3CmxCell%20id%3D%220%22%2F%3E%3CmxCell%20id%3D%221%22%20parent%3D%220%22%2F%3E%3CmxCell%20id%3D%222%22%20value%3D%22%26lt%3Bspan%20style%3D%26quot%3Bfont-size%3A%2072px%3B%26quot%3B%26gt%3BChapter%20Splitter%26lt%3B%2Fspan%26gt%3B%22%20style%3D%22rounded%3D0%3BwhiteSpace%3Dwrap%3Bhtml%3D1%3B%22%20vertex%3D%221%22%20parent%3D%221%22%3E%3CmxGeometry%20x%3D%2270%22%20y%3D%22480%22%20width%3D%22690%22%20height%3D%22190%22%20as%3D%22geometry%22%2F%3E%3C%2FmxCell%3E%3C%2Froot%3E%3C%2FmxGraphModel%3E&lt;/span&gt;" style="rounded=0;whiteSpace=wrap;html=1;strokeWidth=5;" parent="1" vertex="1">
          <mxGeometry x="-1900" y="-460" width="998" height="270" as="geometry" />
        </mxCell>
        <mxCell id="b4DLCXRPWBxsqyUNeIHi-6" style="edgeStyle=orthogonalEdgeStyle;rounded=0;orthogonalLoop=1;jettySize=auto;html=1;entryX=0.5;entryY=1;entryDx=0;entryDy=0;strokeWidth=15;" edge="1" parent="1" source="tXN8Nqjk0O4pm7Y_quoO-8" target="tXN8Nqjk0O4pm7Y_quoO-9">
          <mxGeometry relative="1" as="geometry">
            <Array as="points">
              <mxPoint x="2313" y="845" />
            </Array>
          </mxGeometry>
        </mxCell>
        <mxCell id="tXN8Nqjk0O4pm7Y_quoO-8" value="&lt;div&gt;&lt;font style=&quot;font-size: 96px;&quot;&gt;Story Builder&lt;/font&gt;&lt;/div&gt;&lt;div&gt;&lt;font style=&quot;font-size: 72px;&quot;&gt;&lt;font style=&quot;&quot;&gt;(Cohere command&lt;/font&gt;&lt;span style=&quot;background-color: initial;&quot;&gt;)&lt;/span&gt;&lt;/font&gt;&lt;/div&gt;" style="rounded=0;whiteSpace=wrap;html=1;strokeWidth=5;" parent="1" vertex="1">
          <mxGeometry x="800" y="720" width="1100" height="250" as="geometry" />
        </mxCell>
        <mxCell id="tXN8Nqjk0O4pm7Y_quoO-9" value="&lt;font style=&quot;font-size: 96px;&quot;&gt;Streamlit&lt;/font&gt;" style="rounded=0;whiteSpace=wrap;html=1;strokeWidth=5;" parent="1" vertex="1">
          <mxGeometry x="1700" y="30" width="1225" height="330" as="geometry" />
        </mxCell>
        <mxCell id="b4DLCXRPWBxsqyUNeIHi-2" style="edgeStyle=orthogonalEdgeStyle;rounded=0;orthogonalLoop=1;jettySize=auto;html=1;entryX=0;entryY=0.5;entryDx=0;entryDy=0;strokeWidth=15;" edge="1" parent="1" source="tXN8Nqjk0O4pm7Y_quoO-18" target="tXN8Nqjk0O4pm7Y_quoO-8">
          <mxGeometry relative="1" as="geometry" />
        </mxCell>
        <mxCell id="tXN8Nqjk0O4pm7Y_quoO-18" value="&lt;span style=&quot;font-size: 72px;&quot;&gt;Image Caption Generator&lt;/span&gt;&lt;div&gt;&lt;font style=&quot;font-size: 72px;&quot;&gt;&lt;font style=&quot;&quot;&gt;(Gemini-1.5-pro)&lt;/font&gt;&lt;br&gt;&lt;/font&gt;&lt;div&gt;&lt;span style=&quot;color: rgba(0, 0, 0, 0); font-family: monospace; font-size: 0px; text-align: start; text-wrap-mode: nowrap;&quot;&gt;(f%3CmxGraphModel%3E%3Croot%3E%3CmxCell%20id%3D%220%22%2F%3E%3CmxCell%20id%3D%221%22%20parent%3D%220%22%2F%3E%3CmxCell%20id%3D%222%22%20value%3D%22%26lt%3Bspan%20style%3D%26quot%3Bfont-size%3A%2072px%3B%26quot%3B%26gt%3BChapter%20Splitter%26lt%3B%2Fspan%26gt%3B%22%20style%3D%22rounded%3D0%3BwhiteSpace%3Dwrap%3Bhtml%3D1%3B%22%20vertex%3D%221%22%20parent%3D%221%22%3E%3CmxGeometry%20x%3D%2270%22%20y%3D%22480%22%20width%3D%22690%22%20height%3D%22190%22%20as%3D%22geometry%22%2F%3E%3C%2FmxCell%3E%3C%2Froot%3E%3C%2FmxGraphModel%3E&lt;/span&gt;&lt;span style=&quot;color: rgba(0, 0, 0, 0); font-family: monospace; font-size: 0px; text-align: start; text-wrap-mode: nowrap;&quot;&gt;%3CmxGraphModel%3E%3Croot%3E%3CmxCell%20id%3D%220%22%2F%3E%3CmxCell%20id%3D%221%22%20parent%3D%220%22%2F%3E%3CmxCell%20id%3D%222%22%20value%3D%22%26lt%3Bspan%20style%3D%26quot%3Bfont-size%3A%2072px%3B%26quot%3B%26gt%3BChapter%20Splitter%26lt%3B%2Fspan%26gt%3B%22%20style%3D%22rounded%3D0%3BwhiteSpace%3Dwrap%3Bhtml%3D1%3B%22%20vertex%3D%221%22%20parent%3D%221%22%3E%3CmxGeometry%20x%3D%2270%22%20y%3D%22480%22%20width%3D%22690%22%20height%3D%22190%22%20as%3D%22geometry%22%2F%3E%3C%2FmxCell%3E%3C%2Froot%3E%3C%2FmxGraphModel%3dE&lt;/span&gt;&lt;/div&gt;&lt;/div&gt;" style="rounded=0;whiteSpace=wrap;html=1;strokeWidth=5;" parent="1" vertex="1">
          <mxGeometry x="-601" y="700" width="1116" height="290" as="geometry" />
        </mxCell>
      </root>
    </mxGraphModel>
  </diagram>
</mxfile>
